<?xml version="1.0" encoding="UTF-8" standalone="no"?>
<!-- Created with Inkscape (http://www.inkscape.org/) -->

<svg
   width="478.86667mm"
   height="74.993996mm"
   viewBox="0 0 478.86667 74.993996"
   version="1.1"
   id="svg1"
   xmlns="http://www.w3.org/2000/svg"
   xmlns:svg="http://www.w3.org/2000/svg">
  <defs
     id="defs1" />
  <g
     id="layer1"
     transform="translate(-195.02843,-137.61611)">
    <g
       id="g4"
       transform="matrix(0.9115836,0,0,0.9115836,24.504655,21.247951)"
       style="stroke-width:1.09699">
      <g
         id="text1-6"
         style="font-size:18.9318px;font-family:'Microsoft JhengHei';-inkscape-font-specification:'Microsoft JhengHei, Normal';text-align:center;white-space:pre;fill:#9955cc;stroke-width:0.091728;stroke-linecap:round;stroke-linejoin:round;stroke-miterlimit:52.3;paint-order:markers stroke fill"
         transform="matrix(3.5877547,0,0,3.5877547,-3922.1684,-1305.2465)"
         aria-label="FOTOKUNSTGALERIE">
        <path
           style="font-family:Dosis;-inkscape-font-specification:'Dosis, Normal';stroke-width:0.091728"
           d="m 1145.3491,399.91681 q 0,-0.20825 0.1325,-0.30291 0.1515,-0.11359 0.3219,-0.11359 h 6.7208 q 0.2082,0 0.3029,0.15146 0.095,0.13252 0.095,0.28397 0,0.18932 -0.1136,0.34078 -0.095,0.13252 -0.2839,0.13252 h -6.2286 v 5.56595 h 3.0102 q 0.1893,0 0.2839,0.13252 0.1136,0.13252 0.1136,0.32184 0,0.15146 -0.095,0.28398 -0.095,0.13252 -0.3029,0.13252 h -3.0102 v 6.09604 q 0,0.20825 -0.1514,0.30291 -0.1326,0.0947 -0.3219,0.0947 -0.1704,0 -0.3218,-0.0947 -0.1515,-0.0947 -0.1515,-0.30291 z m 12.6086,13.53624 q -0.8141,0 -1.5145,-0.20825 -0.6816,-0.22718 -1.1928,-0.70048 -0.5111,-0.47329 -0.814,-1.23056 -0.284,-0.75727 -0.284,-1.83639 v -6.00138 q 0,-1.07911 0.284,-1.83638 0.3029,-0.75728 0.814,-1.23057 0.5112,-0.4733 1.1928,-0.68154 0.7004,-0.22719 1.5145,-0.22719 0.7951,0 1.4956,0.22719 0.7005,0.20824 1.2116,0.68154 0.5301,0.47329 0.8141,1.23057 0.3029,0.75727 0.3029,1.83638 v 6.00138 q 0,1.07912 -0.3029,1.83639 -0.284,0.75727 -0.8141,1.23056 -0.5111,0.4733 -1.2116,0.70048 -0.7005,0.20825 -1.4956,0.20825 z m 2.8776,-9.97706 q 0,-1.59027 -0.7572,-2.32861 -0.7573,-0.73834 -2.1204,-0.73834 -1.3631,0 -2.1204,0.73834 -0.7383,0.73834 -0.7383,2.32861 v 6.00138 q 0,1.59027 0.7383,2.32861 0.7573,0.73834 2.1204,0.73834 1.3631,0 2.1204,-0.73834 0.7572,-0.73834 0.7572,-2.32861 z m 10.1096,-3.97568 q 0.2083,0 0.3029,0.13253 0.095,0.13252 0.095,0.3029 0,0.17039 -0.095,0.32185 -0.095,0.15145 -0.3029,0.15145 h -3.2562 v 12.51392 q 0,0.20825 -0.1515,0.32184 -0.1515,0.0947 -0.3218,0.0947 -0.1894,0 -0.3408,-0.0947 -0.1325,-0.11359 -0.1325,-0.32184 v -12.51392 h -3.2942 q -0.1893,0 -0.3029,-0.13252 -0.095,-0.15146 -0.095,-0.32184 0,-0.17039 0.095,-0.30291 0.1136,-0.15146 0.3029,-0.15146 z m 5.4713,13.95274 q -0.8141,0 -1.5145,-0.20825 -0.6816,-0.22718 -1.1927,-0.70048 -0.5112,-0.47329 -0.8141,-1.23056 -0.284,-0.75727 -0.284,-1.83639 v -6.00138 q 0,-1.07911 0.284,-1.83638 0.3029,-0.75728 0.8141,-1.23057 0.5111,-0.4733 1.1927,-0.68154 0.7004,-0.22719 1.5145,-0.22719 0.7951,0 1.4956,0.22719 0.7005,0.20824 1.2117,0.68154 0.53,0.47329 0.814,1.23057 0.3029,0.75727 0.3029,1.83638 v 6.00138 q 0,1.07912 -0.3029,1.83639 -0.284,0.75727 -0.814,1.23056 -0.5112,0.4733 -1.2117,0.70048 -0.7005,0.20825 -1.4956,0.20825 z m 2.8776,-9.97706 q 0,-1.59027 -0.7572,-2.32861 -0.7573,-0.73834 -2.1204,-0.73834 -1.3631,0 -2.1204,0.73834 -0.7383,0.73834 -0.7383,2.32861 v 6.00138 q 0,1.59027 0.7383,2.32861 0.7573,0.73834 2.1204,0.73834 1.3631,0 2.1204,-0.73834 0.7572,-0.73834 0.7572,-2.32861 z m 3.8054,-3.57811 q 0,-0.20825 0.1514,-0.30291 0.1515,-0.0947 0.3218,-0.0947 0.1894,0 0.3219,0.0947 0.1514,0.0947 0.1514,0.30291 v 7.08049 l 5.8121,-7.3266 q 0.057,-0.0947 0.1325,-0.11359 0.095,-0.0379 0.1893,-0.0379 0.1894,0 0.3408,0.15146 0.1704,0.15145 0.1704,0.34077 0,0.15145 -0.095,0.22718 l -4.2217,5.26304 4.7708,7.19409 q 0.076,0.0757 0.076,0.20825 0,0.18931 -0.1704,0.34077 -0.1514,0.13252 -0.3597,0.13252 -0.2272,0 -0.3597,-0.22718 l -4.5815,-6.85331 -1.7039,2.12036 v 4.5247 q 0,0.20825 -0.1514,0.32184 -0.1325,0.0947 -0.3219,0.0947 -0.1703,0 -0.3218,-0.0947 -0.1514,-0.11359 -0.1514,-0.32184 z m 16.3949,0 q 0,-0.20825 0.1325,-0.30291 0.1515,-0.0947 0.3408,-0.0947 0.1704,0 0.3218,0.0947 0.1515,0.0947 0.1515,0.30291 v 9.57949 q 0,1.07912 -0.3029,1.83639 -0.284,0.75727 -0.8141,1.23056 -0.5112,0.4733 -1.2116,0.70048 -0.7005,0.20825 -1.5146,0.20825 -0.814,0 -1.5145,-0.20825 -0.7005,-0.22718 -1.2117,-0.70048 -0.5111,-0.47329 -0.814,-1.23056 -0.284,-0.75727 -0.284,-1.83639 v -9.57949 q 0,-0.20825 0.1515,-0.30291 0.1514,-0.0947 0.3218,-0.0947 0.1893,0 0.3218,0.0947 0.1515,0.0947 0.1515,0.30291 v 9.57949 q 0,1.59027 0.7573,2.32861 0.7572,0.73834 2.1203,0.73834 1.3631,0 2.1204,-0.73834 0.7762,-0.73834 0.7762,-2.32861 z m 11.0751,13.44158 q -0.2083,0 -0.3787,-0.22718 -0.1703,-0.22718 -0.3029,-0.4733 l -5.5659,-10.90471 v 11.18869 q 0,0.20825 -0.1515,0.32184 -0.1325,0.0947 -0.3218,0.0947 -0.1704,0 -0.3219,-0.0947 -0.1514,-0.11359 -0.1514,-0.32184 v -13.02508 q 0,-0.22718 0.1325,-0.30291 0.1515,-0.0947 0.3408,-0.0947 0.265,0 0.4544,0.26505 0.1893,0.26504 0.3218,0.51116 l 5.4713,10.81006 v -11.1887 q 0,-0.20825 0.1514,-0.30291 0.1515,-0.0947 0.3219,-0.0947 0.1893,0 0.3218,0.0947 0.1515,0.0947 0.1515,0.30291 v 13.02508 q 0,0.20825 -0.1515,0.32184 -0.1325,0.0947 -0.3218,0.0947 z m 6.38,-0.79514 q 1.4577,0 2.2339,-0.70047 0.7762,-0.71941 0.7762,-2.1393 0,-0.85193 -0.2839,-1.40095 -0.2651,-0.56795 -0.7194,-0.92766 -0.4355,-0.37863 -1.0034,-0.60581 -0.568,-0.24612 -1.1738,-0.45437 -0.5869,-0.20825 -1.1548,-0.45436 -0.568,-0.24611 -1.0224,-0.62475 -0.4354,-0.37864 -0.7194,-0.94659 -0.265,-0.58689 -0.265,-1.45775 0,-1.02232 0.3597,-1.666 0.3786,-0.66261 0.9466,-1.02232 0.5679,-0.37863 1.2495,-0.51115 0.6815,-0.15146 1.3063,-0.15146 0.5679,0 1.117,0.0947 0.549,0.0757 0.9844,0.22718 0.4354,0.15146 0.7005,0.35971 0.284,0.18931 0.284,0.39756 0,0.15146 -0.1326,0.35971 -0.1135,0.18932 -0.3029,0.18932 -0.1136,0 -0.3218,-0.11359 -0.1893,-0.1136 -0.5112,-0.24612 -0.3029,-0.13252 -0.7572,-0.24611 -0.4544,-0.11359 -1.0792,-0.11359 -0.53,0 -1.0601,0.11359 -0.5112,0.0947 -0.9277,0.37863 -0.3976,0.26505 -0.6626,0.71941 -0.2461,0.45437 -0.2461,1.15484 0,0.94659 0.4733,1.45775 0.4733,0.51116 1.1737,0.833 0.7005,0.32184 1.5146,0.56796 0.833,0.24611 1.5335,0.70047 0.7004,0.43543 1.1737,1.21164 0.4733,0.75727 0.4733,2.0825 0,1.00338 -0.3029,1.74172 -0.2839,0.71941 -0.7951,1.1927 -0.5112,0.4733 -1.2306,0.70048 -0.7005,0.20825 -1.5335,0.20825 -0.9087,0 -1.6092,-0.20825 -0.7004,-0.22718 -1.1927,-0.53009 -0.4733,-0.32184 -0.7194,-0.66261 -0.2461,-0.34077 -0.2461,-0.56796 0,-0.18931 0.1325,-0.3597 0.1515,-0.17039 0.303,-0.17039 0.1703,0 0.3407,0.24612 0.1893,0.24611 0.5112,0.54902 0.3408,0.30291 0.8898,0.54902 0.5679,0.24611 1.4956,0.24611 z m 12.9872,-13.04401 q 0.2082,0 0.3029,0.13253 0.095,0.13252 0.095,0.3029 0,0.17039 -0.095,0.32185 -0.095,0.15145 -0.3029,0.15145 h -3.2563 v 12.51392 q 0,0.20825 -0.1514,0.32184 -0.1515,0.0947 -0.3219,0.0947 -0.1893,0 -0.3407,-0.0947 -0.1326,-0.11359 -0.1326,-0.32184 v -12.51392 h -3.2941 q -0.1893,0 -0.3029,-0.13252 -0.095,-0.15146 -0.095,-0.32184 0,-0.17039 0.095,-0.30291 0.1136,-0.15146 0.3029,-0.15146 z"
           id="path6" />
        <path
           style="font-family:Dosis;-inkscape-font-specification:'Dosis, Normal';fill:#fffafa;stroke-width:0.091728"
           d="m 1238.664,402.79445 q -0.1515,-1.19271 -0.8898,-1.77959 -0.7384,-0.60582 -1.9879,-0.60582 -1.3631,0 -2.1203,0.73834 -0.7384,0.73834 -0.7384,2.32861 v 6.00138 q 0,1.59027 0.7384,2.32861 0.7572,0.73834 2.1203,0.73834 1.3631,0 2.1204,-0.73834 0.7573,-0.73834 0.7573,-2.32861 v -2.53686 h -2.8019 q -0.1894,0 -0.284,-0.13252 -0.095,-0.15146 -0.095,-0.30291 0,-0.15145 0.095,-0.28398 0.095,-0.15145 0.284,-0.15145 h 3.3509 q 0.1893,0 0.284,0.13252 0.1136,0.13252 0.1136,0.30291 v 2.97229 q 0,1.07912 -0.303,1.83639 -0.2839,0.75727 -0.814,1.23056 -0.5112,0.4733 -1.2117,0.70048 -0.7004,0.20825 -1.4956,0.20825 -0.814,0 -1.5145,-0.20825 -0.6816,-0.22718 -1.1927,-0.70048 -0.5112,-0.47329 -0.8141,-1.23056 -0.284,-0.75727 -0.284,-1.83639 v -6.00138 q 0,-1.07911 0.284,-1.83638 0.3029,-0.75728 0.8141,-1.23057 0.5111,-0.4733 1.1927,-0.68154 0.7005,-0.22719 1.4956,-0.22719 0.8898,0 1.5903,0.24612 0.7194,0.24611 1.2116,0.68154 0.5112,0.4165 0.7762,1.00339 0.2651,0.58688 0.2651,1.26843 0,0.26504 -0.1326,0.37863 -0.1325,0.11359 -0.3407,0.11359 -0.1894,0 -0.3219,-0.0947 -0.1325,-0.0947 -0.1514,-0.30291 z m 3.0669,10.54501 q -0.1893,0 -0.3597,-0.0947 -0.1704,-0.11359 -0.1704,-0.32184 0,-0.0757 0.019,-0.11359 l 4.0515,-13.08187 q 0.1135,-0.34078 0.53,-0.34078 0.1704,0 0.3219,0.0947 0.1514,0.0757 0.2082,0.24612 l 4.0136,13.08187 q 0,0.0379 0,0.0568 0.019,0.0189 0.019,0.0568 0,0.17039 -0.1704,0.30291 -0.1704,0.11359 -0.3786,0.11359 -0.3029,0 -0.3787,-0.28398 l -0.9276,-3.01015 h -5.4524 l -0.9087,3.01015 q -0.095,0.28398 -0.4165,0.28398 z m 6.5125,-4.165 -2.4422,-8.08388 -2.499,8.08388 z m 4.5058,4.165 q -0.1704,0 -0.3218,-0.0947 -0.1325,-0.11359 -0.1325,-0.32184 v -13.02508 q 0,-0.20825 0.1514,-0.30291 0.1515,-0.0947 0.3219,-0.0947 0.1893,0 0.3218,0.0947 0.1515,0.0947 0.1515,0.30291 v 12.53285 h 5.5848 q 0.1894,0 0.2651,0.15146 0.095,0.13252 0.095,0.30291 0,0.17038 -0.095,0.32184 -0.076,0.13252 -0.2651,0.13252 z m 9.1441,-7.36447 h 3.0102 q 0.1893,0 0.2839,0.13252 0.1136,0.13252 0.1136,0.32184 0,0.15146 -0.095,0.28398 -0.095,0.13252 -0.3029,0.13252 h -3.0102 v 5.58488 h 6.2475 q 0.1893,0 0.284,0.15146 0.1136,0.13252 0.1136,0.32184 0,0.15145 -0.095,0.30291 -0.095,0.13252 -0.3029,0.13252 h -6.7397 q -0.1704,0 -0.3219,-0.0947 -0.1325,-0.11359 -0.1325,-0.32184 v -13.00615 q 0,-0.20825 0.1325,-0.30291 0.1515,-0.11359 0.3219,-0.11359 h 6.7397 q 0.2082,0 0.3029,0.15146 0.095,0.13252 0.095,0.28397 0,0.18932 -0.1136,0.34078 -0.095,0.13252 -0.284,0.13252 h -6.2475 z m 8.5761,-6.07711 q 0,-0.15145 0.095,-0.26504 0.1136,-0.13253 0.3218,-0.13253 h 3.2373 q 0.7952,0 1.5146,0.18932 0.7383,0.17039 1.2874,0.60582 0.549,0.4165 0.8708,1.13591 0.3219,0.70047 0.3219,1.74172 0,0.8898 -0.2462,1.53348 -0.2271,0.64368 -0.6436,1.07911 -0.4165,0.43543 -0.9845,0.68155 -0.5679,0.22718 -1.2116,0.32184 l 3.0291,5.86886 q 0.057,0.11359 0.057,0.22718 0,0.18931 -0.1326,0.34077 -0.1325,0.13252 -0.3786,0.13252 -0.1704,0 -0.3218,-0.22718 -0.1515,-0.22718 -0.2651,-0.43543 l -2.9723,-5.81206 h -2.6315 v 6.03924 q 0,0.20825 -0.1515,0.32184 -0.1325,0.0947 -0.3218,0.0947 -0.1704,0 -0.3218,-0.0947 -0.1515,-0.11359 -0.1515,-0.32184 z m 0.9466,0.51116 v 5.60381 h 2.7072 q 0.6816,0 1.2306,-0.15145 0.568,-0.15146 0.9655,-0.49223 0.3976,-0.34077 0.6248,-0.87086 0.2272,-0.54902 0.2272,-1.3063 0,-0.75727 -0.2272,-1.28736 -0.2272,-0.53009 -0.6248,-0.85193 -0.3975,-0.34077 -0.9655,-0.49223 -0.549,-0.15145 -1.2306,-0.15145 z m 8.8222,-0.51116 q 0,-0.20825 0.1515,-0.30291 0.1514,-0.0947 0.3218,-0.0947 0.1893,0 0.3219,0.0947 0.1514,0.0947 0.1514,0.30291 v 13.02508 q 0,0.20825 -0.1514,0.32184 -0.1326,0.0947 -0.3219,0.0947 -0.1704,0 -0.3218,-0.0947 -0.1515,-0.11359 -0.1515,-0.32184 z m 4.8844,6.07711 h 3.0102 q 0.1893,0 0.284,0.13252 0.1136,0.13252 0.1136,0.32184 0,0.15146 -0.095,0.28398 -0.095,0.13252 -0.3029,0.13252 h -3.0102 v 5.58488 h 6.2475 q 0.1894,0 0.284,0.15146 0.1136,0.13252 0.1136,0.32184 0,0.15145 -0.095,0.30291 -0.095,0.13252 -0.3029,0.13252 h -6.7397 q -0.1704,0 -0.3218,-0.0947 -0.1326,-0.11359 -0.1326,-0.32184 v -13.00615 q 0,-0.20825 0.1326,-0.30291 0.1514,-0.11359 0.3218,-0.11359 h 6.7397 q 0.2083,0 0.3029,0.15146 0.095,0.13252 0.095,0.28397 0,0.18932 -0.1136,0.34078 -0.095,0.13252 -0.284,0.13252 h -6.2475 z"
           id="path7" />
      </g>
      <path
         style="font-size:18.9318px;font-family:Dosis;-inkscape-font-specification:'Dosis, Normal';font-variant-numeric:lining-nums;text-align:center;letter-spacing:2.42545px;white-space:pre;fill:#fffafa;stroke-width:0.3291;stroke-linecap:round;stroke-linejoin:round;stroke-miterlimit:52.3;paint-order:markers stroke fill"
         d="m 505.17849,208.49315 q 2.897,0 4.4396,-1.10195 1.5426,-1.13173 1.5426,-3.36539 0,-1.3402 -0.56441,-2.20388 -0.52666,-0.89347 -1.42972,-1.45933 -0.86531,-0.59565 -1.99414,-0.95304 -1.12863,-0.38716 -2.33258,-0.71476 -1.1664,-0.32761 -2.29523,-0.71479 -1.12863,-0.38716 -2.03169,-0.98281 -0.86531,-0.59564 -1.42972,-1.48912 -0.52666,-0.92324 -0.52666,-2.29321 0,-1.60825 0.71486,-2.62084 0.75242,-1.04239 1.88125,-1.60825 1.12864,-0.59565 2.48323,-0.80412 1.3544,-0.23825 2.59611,-0.23825 1.12864,0 2.21971,0.14897 1.09127,0.11909 1.95657,0.35739 0.86531,0.23825 1.39216,0.56585 0.56422,0.29783 0.56422,0.62543 0,0.23826 -0.26333,0.56586 -0.22577,0.29783 -0.60198,0.29783 -0.22576,0 -0.63954,-0.1787 -0.37641,-0.17869 -1.01594,-0.38716 -0.60198,-0.20847 -1.50505,-0.38718 -0.90286,-0.17869 -2.14458,-0.17869 -1.0535,0 -2.10701,0.17869 -1.01575,0.14898 -1.8435,0.59565 -0.79018,0.41696 -1.31683,1.13173 -0.4891,0.71477 -0.4891,1.81672 0,1.48911 0.94043,2.29323 0.94063,0.80412 2.33279,1.31042 1.39215,0.5063 3.01008,0.89346 1.65548,0.38716 3.04744,1.10195 1.39216,0.68499 2.33279,1.90605 0.94063,1.19129 0.94063,3.27605 0,1.57847 -0.60198,2.73998 -0.56442,1.13171 -1.58017,1.87627 -1.01594,0.74455 -2.44566,1.10195 -1.39216,0.3276 -3.04765,0.3276 -1.80593,0 -3.19809,-0.3276 -1.39216,-0.3574 -2.37034,-0.8339 -0.94063,-0.5063 -1.42972,-1.04239 -0.4891,-0.53608 -0.4891,-0.89346 0,-0.29783 0.26333,-0.56587 0.30109,-0.26803 0.60198,-0.26803 0.33865,0 0.67729,0.38716 0.37622,0.38718 1.01595,0.86368 0.6771,0.47652 1.76817,0.8637 1.12883,0.38716 2.97253,0.38716 z m 18.62849,-3.008 q 0,1.60824 0.8653,2.26343 0.86531,0.62544 3.00989,0.62544 h 0.94062 q 0.41398,0 0.63974,0.20848 0.22577,0.17869 0.22577,0.4765 0,0.26805 -0.22577,0.47652 -0.22576,0.20849 -0.63974,0.20849 h -0.94062 q -2.82168,0 -4.28916,-1.01261 -1.42972,-1.01259 -1.42972,-3.24625 v -15.99307 q 0,-0.26805 0.30109,-0.44674 0.30089,-0.17869 0.60197,-0.17869 0.37621,0 0.63954,0.17869 0.30109,0.17869 0.30109,0.44674 v 6.19471 h 5.00402 q 0.30109,0 0.48909,0.20847 0.22577,0.1787 0.22577,0.44674 0,0.23825 -0.22577,0.44673 -0.1888,0.17869 -0.48909,0.17869 h -5.00402 z m 19.60668,-9.97707 q 1.3546,0 2.59611,0.41696 1.24172,0.38717 2.18234,1.10195 0.94063,0.71477 1.50485,1.72736 0.56441,0.98282 0.56441,2.14433 0,0.8339 -0.26333,1.31042 -0.26332,0.44673 -0.71486,0.68499 -0.45153,0.20847 -1.05351,0.26804 -0.56441,0.0297 -1.16639,0.0297 h -8.72896 v 1.25086 q 0,0.95302 0.45153,1.72737 0.45153,0.77434 1.24171,1.31042 0.82775,0.53607 1.91882,0.8339 1.12863,0.26805 2.44567,0.26805 1.16619,0 1.88105,-0.17871 0.75262,-0.17869 1.20415,-0.38717 0.4891,-0.23825 0.78999,-0.41694 0.30108,-0.20849 0.60197,-0.20849 0.33865,0 0.60198,0.23827 0.26353,0.23825 0.26353,0.47652 0,0.23825 -0.37621,0.56585 -0.37641,0.29783 -1.09127,0.59565 -0.6771,0.26804 -1.69305,0.47652 -1.01595,0.17869 -2.25746,0.17869 -1.73081,0 -3.16053,-0.38717 -1.42972,-0.41695 -2.48323,-1.13173 -1.01575,-0.71477 -1.61773,-1.72737 -0.56441,-1.01259 -0.56441,-2.26345 v -3.54408 q 0,-1.10195 0.52665,-2.05498 0.56442,-0.9828 1.50504,-1.69759 0.94063,-0.74455 2.18214,-1.1615 1.27928,-0.44674 2.709,-0.44674 z m 2.93476,6.46277 q 1.27928,0 1.69305,-0.17871 0.41397,-0.20847 0.41397,-0.89346 0,-0.74455 -0.37621,-1.48912 -0.33865,-0.74454 -1.01595,-1.31042 -0.6773,-0.56585 -1.61792,-0.92324 -0.90287,-0.3574 -2.0317,-0.3574 -1.09107,0 -2.0317,0.32761 -0.90306,0.29783 -1.58016,0.8339 -0.6773,0.53609 -1.09107,1.25086 -0.37641,0.71477 -0.37641,1.51889 v 1.22109 z m 14.45222,-6.28406 h 5.56843 q 0.33865,0 0.56442,0.20847 0.22577,0.1787 0.22577,0.41695 0,0.26804 -0.22577,0.47652 -0.22577,0.17869 -0.56442,0.17869 h -5.56843 v 12.15116 q 0,0.29782 -0.30109,0.47652 -0.26333,0.14897 -0.6771,0.14897 -0.37621,0 -0.63974,-0.14897 -0.22576,-0.1787 -0.22576,-0.47652 v -16.79719 q 0,-1.10193 0.52685,-2.05497 0.56442,-0.98281 1.46728,-1.72738 0.90307,-0.74454 2.10702,-1.1615 1.24172,-0.44673 2.59611,-0.44673 h 0.63954 q 0.37641,0 0.60218,0.20848 0.26333,0.20847 0.26333,0.50629 0,0.29783 -0.26333,0.47652 -0.22577,0.17869 -0.60218,0.17869 h -0.48909 q -1.09107,0 -1.99414,0.32761 -0.90286,0.3276 -1.58016,0.89346 -0.63954,0.53609 -1.05351,1.25086 -0.37621,0.71477 -0.37621,1.48911 z m 18.70381,-0.17871 q 1.80593,0 3.04765,0.47652 1.24151,0.47652 1.99394,1.28064 0.79018,0.80413 1.12883,1.8465 0.33865,1.01259 0.33865,2.11454 v 7.86252 q 0,0.26803 -0.26333,0.4765 -0.22577,0.17871 -0.63974,0.17871 -0.37621,0 -0.63954,-0.17871 -0.26332,-0.20847 -0.26332,-0.4765 v -1.42955 q -0.97839,0.86368 -2.37035,1.57845 -1.39216,0.685 -3.27341,0.685 -1.09107,0 -2.0317,-0.23826 -0.94063,-0.23826 -1.65549,-0.71477 -0.71486,-0.5063 -1.12883,-1.22109 -0.37621,-0.74454 -0.37621,-1.75714 0,-1.19128 0.63954,-1.96563 0.63974,-0.77434 1.76837,-1.22106 1.16639,-0.44674 2.78432,-0.62543 1.61792,-0.1787 3.5743,-0.1787 h 2.0317 v -0.77434 q 0,-0.77434 -0.26333,-1.54867 -0.26333,-0.80412 -0.82775,-1.42955 -0.56441,-0.62543 -1.46728,-1.0126 -0.90306,-0.38716 -2.18234,-0.38716 -0.90286,0 -1.58016,0.14898 -0.63974,0.11908 -1.12883,0.26804 -0.45134,0.14898 -0.75242,0.29783 -0.30109,0.11908 -0.4891,0.11908 -0.41397,0 -0.63974,-0.26804 -0.1888,-0.29783 -0.1888,-0.53608 0,-0.23827 0.41378,-0.47652 0.45153,-0.26804 1.12883,-0.44674 0.71486,-0.20847 1.58016,-0.3276 0.8655,-0.11909 1.73081,-0.11909 z m 4.66538,7.68383 h -1.8435 q -1.39216,0 -2.67143,0.0893 -1.27928,0.0596 -2.29503,0.35741 -0.97838,0.26803 -1.58036,0.8339 -0.56422,0.53607 -0.56422,1.45933 0,1.39976 1.01575,2.05497 1.05351,0.62543 2.59612,0.62543 0.97818,0 1.91881,-0.29783 0.97839,-0.3276 1.73081,-0.80412 0.75242,-0.5063 1.20395,-1.04237 0.4891,-0.56588 0.4891,-1.07217 z m 13.32358,5.89689 q 0,0.23825 -0.26353,0.44672 -0.26332,0.20849 -0.6771,0.20849 -0.41397,0 -0.6773,-0.20849 -0.22576,-0.20847 -0.22576,-0.44672 v -12.80637 q 0,-0.26803 0.22576,-0.41694 0.26333,-0.1787 0.6773,-0.1787 0.37621,0 0.63954,0.1787 0.26333,0.14897 0.26333,0.41694 v 1.48911 q 0.60198,-0.86368 1.84369,-1.54867 1.27928,-0.71479 3.19809,-0.71479 1.3544,0 2.55855,0.44674 1.24152,0.41696 2.14458,1.16151 0.94063,0.71478 1.46728,1.72738 0.56442,0.98281 0.56442,2.11453 v 8.13056 q 0,0.3276 -0.30109,0.5063 -0.30089,0.14897 -0.63954,0.14897 -0.33865,0 -0.63974,-0.14897 -0.26332,-0.1787 -0.26332,-0.5063 v -8.13056 q 0,-0.77433 -0.41378,-1.48912 -0.37621,-0.74454 -1.09107,-1.3104 -0.67729,-0.59565 -1.61792,-0.92326 -0.90307,-0.35738 -1.91881,-0.35738 -0.90307,0 -1.76837,0.29782 -0.86551,0.26804 -1.58037,0.80411 -0.6771,0.5063 -1.09107,1.28064 -0.41377,0.74457 -0.41377,1.69759 z m 47.45343,-21.11561 q 0.41377,0 0.60198,0.20847 0.1888,0.20847 0.1888,0.47652 0,0.26804 -0.1888,0.50629 -0.1888,0.23827 -0.60198,0.23827 h -6.4715 v 19.68606 q 0,0.3276 -0.30109,0.5063 -0.30089,0.14897 -0.63954,0.14897 -0.37621,0 -0.67729,-0.14897 -0.26333,-0.1787 -0.26333,-0.5063 v -19.68606 h -6.54663 q -0.37641,0 -0.60197,-0.20849 -0.1888,-0.23825 -0.1888,-0.50629 0,-0.26803 0.1888,-0.47652 0.22556,-0.23825 0.60197,-0.23825 z m 10.50151,21.11561 q 0,0.23825 -0.26333,0.44672 -0.26333,0.20849 -0.6773,0.20849 -0.41377,0 -0.6773,-0.20849 -0.22556,-0.20847 -0.22556,-0.44672 v -21.53257 q 0,-0.26803 0.22556,-0.44672 0.26353,-0.1787 0.6773,-0.1787 0.41397,0 0.6773,0.1787 0.26333,0.17869 0.26333,0.44672 v 10.21531 q 0.60197,-0.86368 1.84369,-1.54867 1.24151,-0.71479 3.16033,-0.71479 1.35459,0 2.55855,0.44674 1.24171,0.41696 2.14458,1.16151 0.94063,0.71478 1.46748,1.72738 0.56422,0.98281 0.56422,2.11453 v 8.13056 q 0,0.3276 -0.30089,0.5063 -0.30109,0.14897 -0.63974,0.14897 -0.33865,0 -0.63954,-0.14897 -0.26333,-0.1787 -0.26333,-0.5063 v -8.13056 q 0,-0.77433 -0.41397,-1.48912 -0.37621,-0.74454 -1.09107,-1.3104 -0.6773,-0.59565 -1.61792,-0.92326 -0.90287,-0.35738 -1.91882,-0.35738 -0.90306,0 -1.76837,0.29782 -0.8653,0.26804 -1.58016,0.80411 -0.6773,0.5063 -1.09107,1.28064 -0.41397,0.74457 -0.41397,1.69759 z m 22.24055,-13.40201 q 0.41397,0 0.6773,0.1787 0.26333,0.14897 0.26333,0.41694 v 12.80637 q 0,0.23825 -0.26333,0.44672 -0.26333,0.20849 -0.6773,0.20849 -0.41377,0 -0.6773,-0.20849 -0.22576,-0.20847 -0.22576,-0.44672 v -12.80637 q 0,-0.26803 0.22576,-0.41694 0.26353,-0.1787 0.6773,-0.1787 z m 0,-6.58188 q 0.56442,0 0.97819,0.32761 0.41397,0.29783 0.41397,0.71477 0,0.44674 -0.41397,0.77434 -0.41377,0.32761 -0.97819,0.32761 -0.63954,0 -1.05351,-0.32761 -0.37621,-0.3276 -0.37621,-0.77434 0,-0.41694 0.37621,-0.71477 0.41397,-0.32761 1.05351,-0.32761 z m 16.97301,6.40317 q 1.3546,0 2.59611,0.41696 1.24172,0.38717 2.18234,1.10195 0.94063,0.71477 1.50484,1.72736 0.56442,0.98282 0.56442,2.14433 0,0.8339 -0.26333,1.31042 -0.26333,0.44673 -0.71486,0.68499 -0.45153,0.20847 -1.05351,0.26804 -0.56441,0.0297 -1.16639,0.0297 h -8.72896 v 1.25086 q 0,0.95302 0.45153,1.72737 0.45153,0.77434 1.24171,1.31042 0.82775,0.53607 1.91882,0.8339 1.12863,0.26805 2.44547,0.26805 1.16639,0 1.88125,-0.17871 0.75262,-0.17869 1.20415,-0.38717 0.4891,-0.23825 0.78998,-0.41694 0.30109,-0.20849 0.60198,-0.20849 0.33865,0 0.60198,0.23827 0.26352,0.23825 0.26352,0.47652 0,0.23825 -0.3764,0.56585 -0.37622,0.29783 -1.09108,0.59565 -0.67729,0.26804 -1.69304,0.47652 -1.01595,0.17869 -2.25747,0.17869 -1.7308,0 -3.16052,-0.38717 -1.42972,-0.41695 -2.48323,-1.13173 -1.01575,-0.71477 -1.61793,-1.72737 -0.56422,-1.01259 -0.56422,-2.26345 v -3.54408 q 0,-1.10195 0.52666,-2.05498 0.56442,-0.9828 1.50504,-1.69759 0.94063,-0.74455 2.18214,-1.1615 1.27928,-0.44674 2.709,-0.44674 z m 2.93476,6.46277 q 1.27928,0 1.69305,-0.17871 0.41397,-0.20847 0.41397,-0.89346 0,-0.74455 -0.37621,-1.48912 -0.33865,-0.74454 -1.01595,-1.31042 -0.6773,-0.56585 -1.61792,-0.92324 -0.90287,-0.3574 -2.0317,-0.3574 -1.09107,0 -2.0317,0.32761 -0.90306,0.29783 -1.58016,0.8339 -0.6773,0.53609 -1.09127,1.25086 -0.37621,0.71477 -0.37621,1.51889 v 1.22109 z m 13.81268,-15.04004 q 0.41377,0 0.6771,0.1787 0.26352,0.17869 0.26352,0.44672 v 21.53257 q 0,0.23825 -0.26352,0.44672 -0.26333,0.20849 -0.6771,0.20849 -0.41397,0 -0.6773,-0.20849 -0.22577,-0.20847 -0.22577,-0.44672 v -21.53257 q 0,-0.26803 0.22577,-0.44672 0.26333,-0.1787 0.6773,-0.1787 z"
         id="text2-5"
         aria-label="Stefan Thiel" />
    </g>
  </g>
</svg>
