<?xml version="1.0" encoding="UTF-8" standalone="no"?>
<!-- Created with Inkscape (http://www.inkscape.org/) -->

<svg
   width="100mm"
   height="99.999992mm"
   viewBox="0 0 377.95276 377.95274"
   version="1.1"
   id="svg1"
   inkscape:version="1.3 (0e150ed6c4, 2023-07-21)"
   sodipodi:docname="Logo_final.svg"
   xmlns:inkscape="http://www.inkscape.org/namespaces/inkscape"
   xmlns:sodipodi="http://sodipodi.sourceforge.net/DTD/sodipodi-0.dtd"
   xmlns="http://www.w3.org/2000/svg"
   xmlns:svg="http://www.w3.org/2000/svg">
  <sodipodi:namedview
     id="namedview1"
     pagecolor="#ffffff"
     bordercolor="#000000"
     borderopacity="0.25"
     inkscape:showpageshadow="2"
     inkscape:pageopacity="0.0"
     inkscape:pagecheckerboard="0"
     inkscape:deskcolor="#d1d1d1"
     inkscape:document-units="mm"
     inkscape:zoom="2.3405234"
     inkscape:cx="573.37602"
     inkscape:cy="435.15908"
     inkscape:window-width="3840"
     inkscape:window-height="2071"
     inkscape:window-x="-9"
     inkscape:window-y="-9"
     inkscape:window-maximized="1"
     inkscape:current-layer="layer1" />
  <defs
     id="defs1">
    <linearGradient
       id="swatch2"
       inkscape:swatch="solid">
      <stop
         style="stop-color:#080402;stop-opacity:1;"
         offset="0"
         id="stop2" />
    </linearGradient>
  </defs>
  <g
     inkscape:label="Ebene 1"
     inkscape:groupmode="layer"
     id="layer1"
     transform="translate(-108.74572,-360.09501)">
    <g
       id="g68"
       transform="matrix(1.687686,0,0,1.687686,-227.56873,-271.97982)"
       style="stroke-width:0.592527"
       inkscape:export-filename="..\Icon_stART\stART_lila_weiß_48.svg"
       inkscape:export-xdpi="16.26"
       inkscape:export-ydpi="16.26">
      <circle
         style="fill:#080808;fill-opacity:1;stroke:#080808;stroke-width:0.789839;stroke-opacity:1"
         id="path22-9-6"
         cx="311.24915"
         cy="486.49524"
         r="111.57874" />
      <path
         style="fill:#9955cc;fill-opacity:1;stroke:none;stroke-width:0.789839;stroke-opacity:1"
         d="m 342.03626,379.27845 v 47.58203 c 10.53981,0 19.82776,0.002 30.08985,0.002 v 18.6894 H 342.03626 V 545.72375 H 323.34681 V 445.55188 h -72.20508 c -1.0595,0 -2.12097,0.0662 -3.16602,0.20703 -1.04506,0.14076 -2.07534,0.35701 -3.07226,0.64258 -0.9969,0.2856 -1.96192,0.64168 -2.87696,1.07617 -0.45753,0.21724 -0.89932,0.45179 -1.33007,0.70703 -0.43072,0.25522 -0.84833,0.53245 -1.24805,0.82618 -0.39973,0.2937 -0.78199,0.60673 -1.14649,0.93945 -0.36448,0.33271 -0.712,0.68442 -1.0371,1.05664 -0.32508,0.37222 -0.63069,0.7655 -0.91211,1.17773 -0.28145,0.41224 -0.53597,0.84217 -0.76954,1.29493 -0.23359,0.4527 -0.44544,0.92615 -0.62695,1.41992 -0.18152,0.49377 -0.33572,1.01156 -0.46094,1.54687 -0.12518,0.53532 -0.22045,1.08867 -0.28515,1.66602 -0.0647,0.5773 -0.0996,1.17696 -0.0996,1.79687 0,0.58702 0.0335,1.16446 0.0918,1.73633 0.0583,0.57185 0.14421,1.13755 0.25781,1.69141 0.11364,0.55383 0.25189,1.0979 0.41797,1.63086 0.16611,0.53296 0.36041,1.05721 0.57617,1.5664 0.21573,0.5092 0.45237,1.00379 0.71484,1.48633 0.26247,0.48254 0.55107,0.95126 0.85742,1.4043 0.30635,0.45305 0.63118,0.8899 0.97852,1.31054 0.34736,0.42066 0.71416,0.82359 1.09961,1.20899 0.38545,0.38543 0.7922,0.75231 1.21289,1.09961 0.4207,0.3473 0.85749,0.67613 1.31055,0.98242 0.45306,0.3063 0.92174,0.59108 1.40429,0.85352 0.48256,0.26241 0.97915,0.50501 1.48828,0.7207 0.50915,0.21569 1.03156,0.40422 1.56446,0.57031 0.5329,0.16606 1.07319,0.31024 1.62695,0.42383 0.55376,0.11362 1.11966,0.19951 1.69141,0.25781 0.57172,0.0583 1.15143,0.0859 1.73828,0.0859 h 21.79883 7.03125 0.42578 c 0.79838,0 1.59333,0.025 2.38672,0.0781 0.79339,0.053 1.58728,0.1329 2.37304,0.23829 0.78578,0.10538 1.56433,0.23961 2.33985,0.39648 0.77552,0.15693 1.54595,0.3391 2.30859,0.54688 0.76265,0.20776 1.51851,0.4394 2.26563,0.69726 0.74715,0.25786 1.48584,0.54045 2.21484,0.84766 0.72901,0.30721 1.448,0.63832 2.15625,0.99414 0.70824,0.35583 1.40305,0.73497 2.08789,1.13867 l 0.01,0.008 c 0.67783,0.4002 1.34316,0.82056 1.98828,1.26172 0.64508,0.44118 1.27174,0.90484 1.88281,1.38477 0.61108,0.47993 1.20353,0.97771 1.7793,1.49414 0.57577,0.51641 1.13659,1.04894 1.67578,1.59961 0.53917,0.55069 1.05923,1.11656 1.56055,1.69921 0.50131,0.58269 0.98316,1.18444 1.44531,1.79688 0.46215,0.61246 0.90446,1.23701 1.32617,1.87695 0.42171,0.63997 0.82119,1.2918 1.20117,1.95703 0.37998,0.66523 0.73919,1.343 1.07617,2.03125 0.33698,0.68825 0.65458,1.38864 0.94727,2.09766 0.2927,0.70904 0.56147,1.42868 0.80859,2.15625 0.24713,0.72752 0.46958,1.46124 0.66993,2.20508 0.20023,0.74384 0.37918,1.49604 0.53125,2.2539 0.15209,0.75789 0.27807,1.52328 0.38085,2.29297 0.10276,0.76966 0.18248,1.54695 0.23438,2.32618 0.0521,0.77913 0.0781,1.56113 0.0781,2.34765 0,1.1972 -0.0606,2.37523 -0.17578,3.5293 -0.1151,1.15407 -0.28802,2.28589 -0.51367,3.39258 -0.22565,1.10666 -0.50042,2.18904 -0.83203,3.24414 -0.33164,1.0551 -0.71736,2.07892 -1.15039,3.07812 -0.43303,0.99928 -0.9155,1.97293 -1.44531,2.91211 -0.52988,0.9392 -1.10636,1.84387 -1.72852,2.71875 -0.62213,0.875 -1.29015,1.71899 -2,2.52539 -0.70986,0.80638 -1.46094,1.5788 -2.2539,2.3125 -0.793,0.73368 -1.62845,1.42719 -2.50001,2.08399 -0.87153,0.65677 -1.78294,1.27586 -2.72851,1.85156 -0.94557,0.5756 -1.92639,1.10931 -2.94141,1.59961 -1.01502,0.4902 -2.06267,0.93536 -3.14258,1.33593 -1.07985,0.4007 -2.18987,0.75756 -3.33007,1.06446 -1.14019,0.3068 -2.30992,0.56474 -3.50586,0.77344 -1.19594,0.2088 -2.41889,0.3682 -3.66602,0.4746 -1.24706,0.10655 -2.51876,0.16016 -3.8125,0.16016 h -63.61544 a 111.57874,111.57874 0 0 0 94.46484,52.35143 111.57874,111.57874 0 0 0 111.57813,-111.57812 111.57874,111.57874 0 0 0 -80.79102,-107.21679 z m 25.40235,97.65624 c 2.69196,0 5.25575,0.32194 7.6914,0.96289 2.49969,0.57685 4.67835,1.60199 6.53711,3.07618 1.85875,1.41011 3.33225,3.332 4.42188,5.76757 1.08932,2.37153 1.63476,5.32051 1.63476,8.84571 0,3.01249 -0.41678,5.60791 -1.25,7.78711 -0.76914,2.17921 -1.85947,4.00629 -3.26953,5.48046 -1.41006,1.47419 -3.07521,2.62771 -4.99805,3.46094 -1.90648,0.76259 -3.94103,1.30344 -6.09961,1.625 l 9.49219,31.78125 h -5.1914 c -3.6987,-11.96251 -7.3454,-23.94118 -10.97852,-35.92383 h 5.42773 c 0.9944,-0.12826 1.93872,-0.31272 2.83008,-0.55859 1.92282,-0.51271 3.55832,-1.34626 4.9043,-2.5 1.34599,-1.15373 2.40271,-2.62718 3.17187,-4.42187 0.76929,-1.85875 1.1543,-4.07098 1.1543,-6.63477 0,-2.56381 -0.3852,-4.74247 -1.1543,-6.53711 -0.76916,-1.79462 -1.82588,-3.23656 -3.17187,-4.32617 -1.34598,-1.15373 -2.98148,-1.98698 -4.9043,-2.5 -1.85878,-0.51258 -3.94065,-0.76953 -6.24804,-0.76953 h -5.00586 -5.55664 c -0.4651,-1.53613 -0.93101,-3.07332 -1.39649,-4.60938 h 0.39453 l -0.002,-0.004 z m -21.79883,0.006 h 5.57812 l 20.54102,68.78125 h -5.19141 c -3.2239,-10.42683 -6.40723,-20.86747 -9.57812,-31.31055 h -11.34766 v -4.61328 h 9.94531 c -3.32036,-10.95073 -6.62839,-21.90638 -9.94726,-32.85742 z m 46.36718,0.002 h 14.75391 v 4.61523 h -9.94726 v 64.16211 h -4.80665 v -63.9668 z"
         id="path68" />
      <path
         style="fill:#fffafa;fill-opacity:1;stroke:none;stroke-width:0.789839;stroke-opacity:1"
         d="m 311.24915,374.91712 a 111.57874,111.57874 0 0 0 -111.57813,111.57812 111.57874,111.57874 0 0 0 7.91016,40.5293 h 72.81836 c 1.05949,0 2.11713,-0.0701 3.16211,-0.21094 1.04498,-0.1408 2.07549,-0.35112 3.07227,-0.63672 0.99678,-0.2856 1.9601,-0.64569 2.875,-1.08008 0.45743,-0.2173 0.90529,-0.45378 1.33593,-0.70898 0.43067,-0.2552 0.84452,-0.52857 1.24414,-0.82227 0.39963,-0.2938 0.78597,-0.61066 1.1504,-0.94336 0.36445,-0.3327 0.7082,-0.68444 1.0332,-1.05664 0.325,-0.3722 0.63075,-0.76159 0.91211,-1.17383 0.28136,-0.41223 0.53992,-0.84609 0.77344,-1.29882 0.2335,-0.45274 0.44153,-0.92616 0.62304,-1.41993 0.18146,-0.49377 0.33572,-1.00571 0.46094,-1.54101 0.12518,-0.53532 0.22046,-1.09453 0.28516,-1.67188 0.0647,-0.57734 0.0976,-1.17503 0.0976,-1.79492 0,-0.74996 -0.0504,-1.49258 -0.14844,-2.22656 -0.098,-0.73399 -0.24246,-1.45855 -0.43359,-2.16797 -0.19107,-0.70943 -0.42969,-1.40572 -0.70898,-2.08203 -0.2793,-0.6763 -0.60026,-1.33416 -0.96289,-1.96875 -0.36262,-0.6346 -0.76791,-1.24186 -1.20899,-1.82617 -0.44105,-0.5843 -0.91702,-1.14253 -1.43164,-1.66797 -0.51465,-0.52547 -1.06315,-1.0205 -1.64648,-1.47852 -0.5833,-0.45801 -1.20055,-0.88169 -1.84766,-1.26367 h -0.006 c -0.6504,-0.38332 -1.32629,-0.72192 -2.01953,-1.01367 -0.69323,-0.29176 -1.40282,-0.53899 -2.12891,-0.73633 -0.72607,-0.19733 -1.46583,-0.34514 -2.21484,-0.44531 -0.74899,-0.0999 -1.50753,-0.14844 -2.26953,-0.14844 h -0.42578 -7.03125 -21.79493 c -1.23125,0 -2.44886,-0.0672 -3.64843,-0.18945 -1.19959,-0.12218 -2.38311,-0.30073 -3.54492,-0.53906 -1.16178,-0.23833 -2.30186,-0.53633 -3.41993,-0.88477 -1.11805,-0.34846 -2.21495,-0.74862 -3.2832,-1.20117 -1.06824,-0.45254 -2.10869,-0.95525 -3.12109,-1.50586 -1.01241,-0.55059 -1.99673,-1.15034 -2.94727,-1.79297 -0.95052,-0.64263 -1.86932,-1.32995 -2.75195,-2.05859 -0.88262,-0.72864 -1.73042,-1.49609 -2.53906,-2.30469 -0.80869,-0.80861 -1.57598,-1.65652 -2.30469,-2.53906 -0.72872,-0.88254 -1.41593,-1.79954 -2.0586,-2.75 -0.64273,-0.95044 -1.24032,-1.93494 -1.79101,-2.94727 -0.55067,-1.01231 -1.05521,-2.05487 -1.50781,-3.12305 -0.4526,-1.06817 -0.85658,-2.16128 -1.20508,-3.27929 -0.3485,-1.11801 -0.6406,-2.26202 -0.87891,-3.42383 -0.23837,-1.16178 -0.42271,-2.34151 -0.54492,-3.54102 -0.1222,-1.19957 -0.18359,-2.41517 -0.18359,-3.64648 0,-1.19707 0.0608,-2.37535 0.17578,-3.5293 0.11512,-1.15393 0.28411,-2.28597 0.50976,-3.39258 0.22565,-1.10652 0.50431,-2.18912 0.83594,-3.24414 0.33164,-1.05499 0.71734,-2.08084 1.15039,-3.08007 0.43303,-0.99916 0.91544,-1.97096 1.44531,-2.91016 0.52989,-0.9392 1.10637,-1.84575 1.72852,-2.7207 0.62217,-0.87495 1.29011,-1.71697 2,-2.52344 0.70987,-0.80647 1.46089,-1.57879 2.25391,-2.3125 0.79299,-0.73376 1.62838,-1.4291 2.5,-2.08594 0.87156,-0.65683 1.78287,-1.27392 2.72851,-1.84961 0.94565,-0.57568 1.92636,-1.11126 2.94141,-1.60156 1.01511,-0.49029 2.06259,-0.9372 3.14258,-1.33789 1.07996,-0.40063 2.19365,-0.7537 3.33398,-1.06055 1.1403,-0.30687 2.30589,-0.56659 3.50195,-0.77539 1.19609,-0.2088 2.41876,-0.36606 3.66602,-0.47265 1.24727,-0.10656 2.52254,-0.16016 3.8164,-0.16016 20.48438,0.004 47.06213,0.003 72.20118,0.004 V 375.5969 a 111.57874,111.57874 0 0 0 -12.09766,-0.67969 z"
         id="path22-9-0" />
    </g>
  </g>
</svg>
