<?xml version="1.0" encoding="UTF-8" standalone="no"?>
<!-- Created with Inkscape (http://www.inkscape.org/) -->

<svg
   width="99.999939mm"
   height="99.999893mm"
   viewBox="0 0 377.95253 377.95236"
   version="1.1"
   id="svg1"
   inkscape:version="1.3 (0e150ed6c4, 2023-07-21)"
   sodipodi:docname="Logo_final.svg"
   xmlns:inkscape="http://www.inkscape.org/namespaces/inkscape"
   xmlns:sodipodi="http://sodipodi.sourceforge.net/DTD/sodipodi-0.dtd"
   xmlns="http://www.w3.org/2000/svg"
   xmlns:svg="http://www.w3.org/2000/svg">
  <sodipodi:namedview
     id="namedview1"
     pagecolor="#ffffff"
     bordercolor="#000000"
     borderopacity="0.25"
     inkscape:showpageshadow="2"
     inkscape:pageopacity="0.0"
     inkscape:pagecheckerboard="0"
     inkscape:deskcolor="#d1d1d1"
     inkscape:document-units="mm"
     inkscape:zoom="2.3405234"
     inkscape:cx="573.37602"
     inkscape:cy="435.15908"
     inkscape:window-width="3840"
     inkscape:window-height="2071"
     inkscape:window-x="-9"
     inkscape:window-y="-9"
     inkscape:window-maximized="1"
     inkscape:current-layer="layer1" />
  <defs
     id="defs1">
    <linearGradient
       id="swatch2"
       inkscape:swatch="solid">
      <stop
         style="stop-color:#080402;stop-opacity:1;"
         offset="0"
         id="stop2" />
    </linearGradient>
  </defs>
  <g
     inkscape:label="Ebene 1"
     inkscape:groupmode="layer"
     id="layer1"
     transform="translate(-586.63726,-360.09501)">
    <g
       id="g62-4-8"
       transform="matrix(1.6876849,0,0,1.6876843,1281.4738,-992.33546)"
       style="stroke-width:0.592528"
       inkscape:export-filename="..\Icon_stART\stART_grau_32.png"
       inkscape:export-xdpi="8.1300001"
       inkscape:export-ydpi="8.1300001">
      <circle
         style="display:inline;fill:none;fill-opacity:1;stroke:#949494;stroke-width:0.789841;stroke-opacity:1"
         id="path22-9-9-4-5-2"
         cx="-299.73621"
         cy="913.32642"
         r="111.57874" />
      <path
         id="path59-6-7"
         style="fill:#949494;fill-opacity:1;stroke-width:0.789841"
         d="m -287.63868,802.41601 v 51.2715 c 6.50729,2e-4 12.14294,0 18.68945,0 v -47.5723 a 111.57874,111.57874 0 0 0 -1.9082,-0.5664 111.57874,111.57874 0 0 0 -5.67969,-1.3633 111.57874,111.57874 0 0 0 -5.74414,-1.0644 111.57874,111.57874 0 0 0 -5.35742,-0.7051 z m 0,51.2715 c -25.13835,-8e-4 -51.71538,9e-4 -72.19922,-0.01 v 0.01 c -1.29389,0 -2.56914,0.054 -3.81641,0.1601 -1.24726,0.1066 -2.46994,0.2639 -3.66601,0.4727 -1.19606,0.2088 -2.36166,0.4685 -3.50196,0.7754 -1.14033,0.3068 -2.25399,0.6599 -3.33398,1.0605 -1.07999,0.4007 -2.12747,0.8476 -3.14258,1.3379 -1.01505,0.4903 -1.99576,1.0259 -2.94141,1.6016 -0.94564,0.5757 -1.85692,1.1928 -2.72851,1.8496 -0.87162,0.6568 -1.70698,1.3522 -2.5,2.0859 -0.79302,0.7337 -1.54404,1.506 -2.25391,2.3125 -0.70989,0.8065 -1.37783,1.6485 -2,2.5235 -0.62215,0.8749 -1.19862,1.7815 -1.72851,2.7207 -0.52987,0.9392 -1.01229,1.911 -1.44532,2.9101 -0.43305,0.9992 -0.81875,2.0251 -1.15039,3.0801 -0.33163,1.055 -0.61028,2.1376 -0.83593,3.2441 -0.22565,1.1066 -0.39465,2.2387 -0.50977,3.3926 -0.115,1.154 -0.17578,2.3322 -0.17578,3.5293 0,1.2313 0.0614,2.4469 0.18359,3.6465 0.12221,1.1995 0.30655,2.3792 0.54492,3.541 0.23831,1.1618 0.53041,2.3058 0.87891,3.4238 0.3485,1.118 0.75248,2.2111 1.20508,3.2793 0.4526,1.0682 0.95714,2.1108 1.50781,3.1231 0.55069,1.0123 1.14829,1.9968 1.79102,2.9472 0.64267,0.9505 1.32987,1.8675 2.05859,2.75 0.72871,0.8826 1.496,1.7305 2.30469,2.5391 0.80867,0.8086 1.65644,1.5761 2.53906,2.3047 0.88263,0.7286 1.80143,1.416 2.75195,2.0586 0.95054,0.6426 1.93486,1.2424 2.94727,1.793 1.0124,0.5506 2.05285,1.0533 3.12109,1.5058 1.06825,0.4526 2.16516,0.8527 3.28321,1.2012 1.11807,0.3484 2.25814,0.6464 3.41992,0.8848 1.16184,0.2383 2.34533,0.4168 3.54492,0.539 1.19957,0.1222 2.41716,0.1895 3.64844,0.1895 h 21.79492 7.03125 0.42578 c 0.762,0 1.52054,0.049 2.26953,0.1484 0.74901,0.1002 1.48878,0.248 2.21485,0.4453 0.72609,0.1974 1.43567,0.4447 2.1289,0.7364 0.69324,0.2918 1.36913,0.6303 2.01953,1.0136 h 0.004 c 0.64711,0.382 1.26436,0.8057 1.84766,1.2637 0.58333,0.458 1.13183,0.953 1.64648,1.4785 0.51462,0.5254 0.99059,1.0837 1.43164,1.668 0.44108,0.5843 0.84637,1.1916 1.20899,1.8262 0.36263,0.6344 0.68359,1.2924 0.96289,1.9687 0.27929,0.6763 0.51791,1.3726 0.70898,2.082 0.19113,0.7094 0.3356,1.434 0.43359,2.168 0.098,0.734 0.14844,1.4766 0.14844,2.2266 0,0.6199 -0.0329,1.2175 -0.0976,1.7949 -0.0647,0.5773 -0.15998,1.1365 -0.28516,1.6719 -0.12522,0.5353 -0.27948,1.0472 -0.46094,1.541 -0.18151,0.4937 -0.38954,0.9672 -0.62304,1.4199 -0.23352,0.4528 -0.49208,0.8866 -0.77344,1.2988 -0.28136,0.4123 -0.58711,0.8017 -0.91211,1.1739 -0.325,0.3722 -0.66877,0.7239 -1.0332,1.0566 -0.36443,0.3327 -0.75077,0.6496 -1.1504,0.9434 -0.39963,0.2937 -0.81347,0.567 -1.24414,0.8222 -0.43064,0.2552 -0.8785,0.4917 -1.33593,0.709 -0.9149,0.4344 -1.87822,0.7945 -2.875,1.0801 -0.99678,0.2856 -2.02729,0.4959 -3.07227,0.6367 -1.04498,0.1408 -2.10262,0.2109 -3.16211,0.2109 h -72.76172 a 111.57874,111.57874 0 0 0 4.19531,10.127 111.57874,111.57874 0 0 0 5.25196,8.5703 h 63.31445 c 1.29374,0 2.56544,-0.054 3.8125,-0.1602 1.24713,-0.1064 2.47008,-0.2658 3.66602,-0.4746 1.19594,-0.2087 2.36567,-0.4666 3.50586,-0.7734 1.1402,-0.3069 2.25021,-0.6638 3.33007,-1.0645 1.07991,-0.4006 2.12756,-0.8457 3.14258,-1.3359 1.01502,-0.4903 1.99584,-1.024 2.94141,-1.5996 0.94557,-0.5757 1.85697,-1.1948 2.72851,-1.8516 0.87156,-0.6568 1.70702,-1.3503 2.5,-2.0839 0.79299,-0.7337 1.54405,-1.5062 2.25391,-2.3125 0.70985,-0.8064 1.37787,-1.6504 2,-2.5254 0.62216,-0.8749 1.19864,-1.7796 1.72852,-2.7188 0.52981,-0.9392 1.01228,-1.9128 1.44531,-2.9121 0.43303,-0.9992 0.81875,-2.023 1.15039,-3.0781 0.33161,-1.0551 0.60638,-2.1375 0.83203,-3.2442 0.22565,-1.1067 0.39857,-2.2385 0.51367,-3.3925 0.1152,-1.1541 0.17578,-2.3321 0.17578,-3.5293 0,-0.7866 -0.026,-1.5685 -0.0781,-2.3477 -0.0519,-0.7792 -0.13162,-1.5565 -0.23438,-2.3262 -0.10278,-0.7697 -0.22875,-1.535 -0.38085,-2.2929 -0.15207,-0.7579 -0.331,-1.5101 -0.53126,-2.2539 -0.20033,-0.7439 -0.42279,-1.4776 -0.66992,-2.2051 -0.24712,-0.7276 -0.51589,-1.4472 -0.80859,-2.1563 -0.29269,-0.709 -0.61029,-1.4094 -0.94727,-2.0976 -0.33698,-0.6883 -0.69619,-1.366 -1.07617,-2.0313 -0.37998,-0.6652 -0.77946,-1.317 -1.20117,-1.957 -0.42171,-0.6399 -0.86402,-1.2645 -1.32617,-1.877 -0.46215,-0.6124 -0.944,-1.2141 -1.44531,-1.7968 -0.50132,-0.5827 -1.02138,-1.1486 -1.56055,-1.6993 -0.53919,-0.5506 -1.10001,-1.0832 -1.67578,-1.5996 -0.57577,-0.5164 -1.16822,-1.0142 -1.7793,-1.4941 -0.61107,-0.4799 -1.23773,-0.9436 -1.88281,-1.3848 -0.64512,-0.4411 -1.31045,-0.8615 -1.98828,-1.2617 l -0.008,-0.01 c -0.68484,-0.4037 -1.37965,-0.7827 -2.08789,-1.1386 -0.70825,-0.3558 -1.42724,-0.687 -2.15625,-0.9942 -0.729,-0.3072 -1.46769,-0.5897 -2.21484,-0.8476 -0.74712,-0.2578 -1.50298,-0.4896 -2.26563,-0.6973 -0.76262,-0.2078 -1.53307,-0.39 -2.30859,-0.5469 -0.77552,-0.1569 -1.55406,-0.291 -2.33984,-0.3964 -0.78576,-0.1054 -1.57966,-0.1853 -2.37305,-0.2383 -0.79339,-0.053 -1.58834,-0.0782 -2.38672,-0.0782 h -0.42578 -7.03125 -21.79883 c -0.58685,0 -1.16656,-0.0279 -1.73828,-0.0859 -0.57175,-0.058 -1.13765,-0.1442 -1.69141,-0.2578 -0.55376,-0.1136 -1.09405,-0.2577 -1.62695,-0.4238 -0.5329,-0.1661 -1.0553,-0.3546 -1.56445,-0.5703 -0.50916,-0.2157 -1.00572,-0.4583 -1.48828,-0.7207 -0.48255,-0.2625 -0.95124,-0.5473 -1.4043,-0.8536 -0.45306,-0.3063 -0.88985,-0.6351 -1.31055,-0.9824 -0.42069,-0.3473 -0.82744,-0.7141 -1.21289,-1.0996 -0.38545,-0.3854 -0.75225,-0.7884 -1.09961,-1.209 -0.34734,-0.4207 -0.67216,-0.8574 -0.97851,-1.3105 -0.30635,-0.453 -0.59497,-0.9218 -0.85742,-1.4043 -0.26247,-0.4825 -0.49912,-0.9771 -0.71485,-1.4863 -0.21576,-0.5092 -0.41006,-1.0336 -0.57617,-1.5665 -0.16608,-0.533 -0.30433,-1.077 -0.41797,-1.6308 -0.1136,-0.5538 -0.19951,-1.1195 -0.25781,-1.6914 -0.0583,-0.5719 -0.0918,-1.1493 -0.0918,-1.7363 0,-0.6199 0.0349,-1.2196 0.0996,-1.7969 0.0647,-0.5773 0.15998,-1.1307 0.28516,-1.666 0.12522,-0.5353 0.27941,-1.0531 0.46093,-1.5469 0.18151,-0.4938 0.39337,-0.9672 0.62696,-1.4199 0.23357,-0.4528 0.48808,-0.8828 0.76953,-1.295 0.28142,-0.4123 0.58703,-0.8054 0.91211,-1.1777 0.3251,-0.3722 0.6726,-0.7239 1.03711,-1.0566 0.3645,-0.3327 0.74675,-0.6458 1.14648,-0.9395 0.39972,-0.2937 0.81733,-0.571 1.24805,-0.8262 0.43075,-0.2553 0.87255,-0.4897 1.33008,-0.707 0.91504,-0.4344 1.88005,-0.7906 2.87695,-1.0762 0.99692,-0.2856 2.02721,-0.5017 3.07227,-0.6425 1.04503,-0.1409 2.10651,-0.2071 3.16601,-0.2071 h 72.20313 v 0.002 100.1719 h 18.68945 v -100.1739 h 30.0918 v -18.6894 h -30.0918 v -0.002 h -18.68945 z" />
      <path
         id="path62-7-0"
         style="font-size:192px;font-family:Dosis;-inkscape-font-specification:'Dosis, Normal';text-align:center;white-space:pre;fill:#949494;fill-opacity:1;stroke-width:0.789841"
         d="m -255.11329,903.76751 0.002,0.01 h -0.39258 c 0.46548,1.536 0.92945,3.0713 1.39453,4.6074 h 5.5586 5.00391 c 1.15369,0 2.2516,0.065 3.29296,0.1934 1.04136,0.1283 2.02569,0.3218 2.95508,0.5781 0.96141,0.2565 1.85259,0.5912 2.66992,1.0078 0.81733,0.4166 1.56139,0.9134 2.23438,1.4903 0.67299,0.5448 1.27395,1.1775 1.80273,1.8984 0.52879,0.7209 0.98652,1.5304 1.3711,2.4277 0.19227,0.4487 0.35966,0.9212 0.5039,1.418 0.14425,0.4968 0.26514,1.0177 0.36133,1.5625 0.19238,1.0897 0.28711,2.2767 0.28711,3.5586 0,1.2819 -0.0948,2.4744 -0.28711,3.5801 -0.19235,1.1056 -0.48059,2.1233 -0.86523,3.0527 -0.38458,0.8974 -0.84231,1.716 -1.3711,2.4531 -0.52878,0.7371 -1.12974,1.3939 -1.80273,1.9707 -0.67299,0.5769 -1.41705,1.0736 -2.23438,1.4903 -0.81733,0.4166 -1.70851,0.7534 -2.66992,1.0097 -0.89136,0.2459 -1.83372,0.4303 -2.82812,0.5586 h -5.42969 c 3.63312,11.9827 7.28177,23.9594 10.98047,35.9219 h 5.1914 l -9.49218,-31.7793 c 1.07929,-0.1608 2.12597,-0.3759 3.14258,-0.6465 1.01659,-0.2706 2.00182,-0.5972 2.95507,-0.9785 0.96142,-0.4166 1.86031,-0.9133 2.69336,-1.4902 0.83305,-0.5769 1.60161,-1.2336 2.30664,-1.9707 0.35252,-0.3686 0.68357,-0.7592 0.9961,-1.1719 0.31252,-0.4127 0.60642,-0.8479 0.8789,-1.3047 0.54498,-0.9135 1.00998,-1.9143 1.39453,-3.0039 0.20831,-0.5448 0.39065,-1.1161 0.54688,-1.7129 0.15623,-0.5968 0.28646,-1.2202 0.39062,-1.8691 0.20832,-1.2978 0.3125,-2.6989 0.3125,-4.2051 0,-0.8813 -0.0354,-1.7279 -0.10351,-2.5371 -0.0681,-0.8092 -0.17044,-1.5813 -0.30664,-2.3184 -0.1362,-0.7371 -0.30549,-1.4385 -0.50977,-2.1035 -0.20427,-0.665 -0.44251,-1.2938 -0.71484,-1.8867 -0.27241,-0.6089 -0.5682,-1.1857 -0.88867,-1.7305 -0.32048,-0.5448 -0.66661,-1.0584 -1.03516,-1.539 -0.36855,-0.4807 -0.76112,-0.9291 -1.17773,-1.3457 -0.41662,-0.4166 -0.85563,-0.7999 -1.32032,-1.1524 -0.46469,-0.3685 -0.95029,-0.709 -1.45507,-1.0215 -0.50479,-0.3125 -1.02937,-0.5971 -1.57422,-0.8535 -0.54485,-0.2564 -1.11042,-0.4852 -1.69532,-0.6855 -0.58488,-0.2004 -1.18953,-0.3734 -1.81445,-0.5176 -1.21782,-0.3205 -2.46817,-0.5605 -3.75,-0.7207 -1.28182,-0.1602 -2.59543,-0.2402 -3.9414,-0.2402 z m -10.23047,0.01 c 3.31889,10.951 6.62689,21.9048 9.94727,32.8555 h -9.94727 v 4.6152 h 11.34766 c 3.17089,10.4431 6.35619,20.8818 9.58007,31.3086 h 5.19141 l -20.54102,-68.7793 z m 46.36719,0 v 4.8086 h -0.002 v 63.9668 h 4.8086 v -64.1602 h 9.94531 v -4.6152 z" />
    </g>
  </g>
</svg>
